HIERARCHY
ROOT RootJoint
{
    OFFSET   0.000000   0.000000   0.000000
    CHANNELS 6 Xposition Yposition Zposition Xrotation Yrotation Zrotation
    JOINT pelvis_lowerback
    {
        OFFSET   0.000000   0.093605   0.000000
        CHANNELS 3 Xrotation Yrotation Zrotation
        JOINT lowerback_torso
        {
            OFFSET   0.000000   0.100000   0.000000
            CHANNELS 3 Xrotation Yrotation Zrotation
            JOINT torso_head
            {
                OFFSET   0.000000   0.282350   0.000000
                CHANNELS 3 Xrotation Yrotation Zrotation
                End Site
                {
                    OFFSET   0.000000   0.192650   0.000000
                }
            }
            JOINT rTorso_Clavicle
            {
                OFFSET  -0.001000   0.157500   0.000000
                CHANNELS 3 Xrotation Yrotation Zrotation
                JOINT rShoulder
                {
                    OFFSET  -0.117647   0.000000   0.000000
                    CHANNELS 3 Xrotation Yrotation Zrotation
                    JOINT rElbow
                    {
                        OFFSET  -0.245000   0.000000   0.000000
                        CHANNELS 3 Xrotation Yrotation Zrotation
                        JOINT rWrist
                        {
                            OFFSET  -0.240000   0.000000   0.000000
                            CHANNELS 3 Xrotation Yrotation Zrotation
                            End Site
                            {
                                OFFSET  -0.116353  -0.002500   0.000000
                            }
                        }
                    }
                }
            }
            JOINT lTorso_Clavicle
            {
                OFFSET   0.001000   0.157500   0.000000
                CHANNELS 3 Xrotation Yrotation Zrotation
                JOINT lShoulder
                {
                    OFFSET   0.117647   0.000000   0.000000
                    CHANNELS 3 Xrotation Yrotation Zrotation
                    JOINT lElbow
                    {
                        OFFSET   0.245000   0.000000   0.000000
                        CHANNELS 3 Xrotation Yrotation Zrotation
                        JOINT lWrist
                        {
                            OFFSET   0.240000   0.000000   0.000000
                            CHANNELS 3 Xrotation Yrotation Zrotation
                            End Site
                            {
                                OFFSET   0.116353  -0.002500   0.000000
                            }
                        }
                    }
                }
            }
        }
    }
    JOINT rHip
    {
        OFFSET  -0.100000  -0.051395   0.000000
        CHANNELS 3 Xrotation Yrotation Zrotation
        JOINT rKnee
        {
            OFFSET   0.000000  -0.410000   0.000000
            CHANNELS 3 Xrotation Yrotation Zrotation
            JOINT rAnkle
            {
                OFFSET   0.000000  -0.390000   0.000000
                CHANNELS 3 Xrotation Yrotation Zrotation
                JOINT rToeJoint
                {
                    OFFSET   0.000000  -0.050000   0.130000
                    CHANNELS 3 Xrotation Yrotation Zrotation
                    End Site
                    {
                        OFFSET  -0.010000   0.002000   0.060000
                    }
                }
            }
        }
    }
    JOINT lHip
    {
        OFFSET   0.100000  -0.051395   0.000000
        CHANNELS 3 Xrotation Yrotation Zrotation
        JOINT lKnee
        {
            OFFSET   0.000000  -0.410000   0.000000
            CHANNELS 3 Xrotation Yrotation Zrotation
            JOINT lAnkle
            {
                OFFSET   0.000000  -0.390000   0.000000
                CHANNELS 3 Xrotation Yrotation Zrotation
                JOINT lToeJoint
                {
                    OFFSET   0.000000  -0.050000   0.130000
                    CHANNELS 3 Xrotation Yrotation Zrotation
                    End Site
                    {
                        OFFSET   0.010000   0.002000   0.060000
                    }
                }
            }
        }
    }
}
MOTION
Frames: 7
Frame Time:   0.008333
 -2.295690   0.900886   4.692447  -4.358354  22.911566   4.176987   7.384812  -0.035852  -0.279630  -1.254223  -1.615523   0.530191  -0.020927   0.409812   1.370791  -0.347765   1.373933   4.889376  -9.014931   3.668314  41.225846   0.006601  64.511981  -0.005802  -0.333585   1.094270 -10.329636  -3.093384  -4.153604  -7.235827 -15.054551  -6.014797 -41.274574  -0.189796 -85.823137  -0.172879  -3.842170  -5.901047  15.884585 -26.190709  -1.439512  -9.302031  63.513250   0.057089   0.039339  -9.225539 -11.017946   1.836034  -0.462391   0.000074  -0.000057  -3.575900  -7.651113  -4.247261  22.681301   0.000101  -0.000316 -15.433636  -3.321664   3.591570  -0.020157  -0.000395   0.001270
 -2.295618   0.899949   4.688333  -4.543513  23.393531   4.706166   7.393911  -0.243340  -0.552062  -1.177923  -1.752246   0.337107   0.045016   0.399772   1.394938  -0.476764   1.124282   4.811205  -9.460556   3.137459  41.043334   0.004576  64.551181  -0.004000  -0.443204   1.034403 -10.597494  -3.079915  -4.402378  -7.552521 -14.289957  -6.517502 -41.778302  -0.212438 -84.812398  -0.190869  -3.834108  -6.117256  15.885785 -26.243471  -1.263393  -9.716563  66.379713   0.053788   0.037821  -9.086941 -10.974177   1.882374  -0.429302   0.000253   0.000056  -4.007936  -7.848645  -4.870259  23.020422   0.000510   0.000287 -15.260760  -3.536641   3.713394  -0.044924  -0.000310   0.001016
 -2.295620   0.898890   4.684267  -4.735638  23.853818   5.250706   7.401915  -0.444099  -0.836663  -1.086232  -1.889971   0.125656   0.101104   0.391787   1.421358  -0.594711   0.895555   4.761190  -9.875502   2.650499  40.886229   0.002944  64.594930  -0.002542  -0.543427   1.015840 -10.832851  -3.018189  -4.653633  -7.915617 -13.530344  -6.983774 -42.281076  -0.219655 -83.820943  -0.193924  -3.891949  -6.092333  15.766727 -26.215129  -1.106719 -10.097337  69.172956   0.050311   0.036745  -8.947911 -10.933282   1.926594  -0.364272   0.000571   0.000243  -4.453858  -8.021192  -5.504851  23.400018   0.000871   0.000816 -15.110005  -3.745292   3.817459  -0.066566  -0.000245   0.000812
 -2.295712   0.897773   4.680205  -4.911833  24.271986   5.793181   7.410392  -0.628699  -1.127172  -0.989383  -2.017216  -0.099422   0.149039   0.384390   1.445686  -0.702578   0.686955   4.729667 -10.261443   2.200381  40.747352   0.001729  64.637062  -0.001458  -0.637361   1.013874 -11.037635  -2.931524  -4.889989  -8.299245 -12.797224  -7.417871 -42.770858  -0.216069 -82.881635  -0.187279  -3.978139  -5.962434  15.584118 -26.131478  -0.971827 -10.434679  71.818574   0.046248   0.035623  -8.816136 -10.895381   1.967917  -0.299912   0.000794   0.000384  -4.916429  -8.160071  -6.141115  23.785035   0.001142   0.001190 -14.963046  -3.935429   3.911714  -0.084605  -0.000195   0.000650
 -2.295899   0.896629   4.676121  -5.065756  24.646279   6.325718   7.423424  -0.797111  -1.418618  -0.889699  -2.132262  -0.331277   0.191483   0.377493   1.466940  -0.802234   0.496413   4.709076 -10.621191   1.783519  40.621812   0.000846  64.676937  -0.000674  -0.726596   1.018319 -11.218700  -2.833125  -5.110096  -8.684274 -12.099472  -7.824104 -43.239111  -0.206649 -81.998162  -0.175991  -4.074591  -5.788900  15.372936 -26.011179  -0.859624 -10.729549  74.303514   0.041770   0.034411  -8.692374 -10.860050   2.006597  -0.239406   0.000924   0.000480  -5.394437  -8.265439  -6.773011  24.161098   0.001320   0.001414 -14.811569  -4.105153   4.000536  -0.099027  -0.000155   0.000520
 -2.296177   0.895476   4.672006  -5.196948  24.979377   6.843777   7.443827  -0.951164  -1.705865  -0.787441  -2.236258  -0.563900   0.230381   0.371078   1.485162  -0.895069   0.321961   4.694726 -10.957177   1.397032  40.506377   0.000218  64.714545  -0.000121  -0.811667   1.025925 -11.381695  -2.730700  -5.315103  -9.059762 -11.440798  -8.205715 -43.681646  -0.194286 -81.169773  -0.162845  -4.173700  -5.597037  15.149719 -25.866610  -0.768818 -10.985312  76.630536   0.037152   0.033140  -8.576500 -10.827009   2.042850  -0.183417   0.000980   0.000539  -5.884462  -8.339612  -7.395776  24.521465   0.001420   0.001517 -14.651745  -4.255244   4.086351  -0.110082  -0.000123   0.000416
 -2.296540   0.894325   4.667857  -5.307120  25.274752   7.344638   7.472940  -1.092909  -1.984473  -0.682612  -2.330875  -0.792502   0.266984   0.365119   1.500733  -0.981905   0.161829   4.683976 -11.271279   1.038365  40.399080  -0.000214  64.749936   0.000257  -0.892864   1.035313 -11.530473  -2.628734  -5.506448  -9.419856 -10.822146  -8.565083 -44.097008  -0.180614 -80.394406  -0.149292  -4.271875  -5.398975  14.922596 -25.706371  -0.697089 -11.206235  78.806752   0.032625   0.031827  -8.468167 -10.796059   2.076845  -0.132028   0.000984   0.000569  -6.382394  -8.385361  -8.005699  24.862939   0.001457   0.001529 -14.482078  -4.387082   4.170541  -0.118110  -0.000098   0.000333
